<mxfile host="app.diagrams.net" agent="Mozilla/5.0 (Windows NT 10.0; Win64; x64) AppleWebKit/537.36 (KHTML, like Gecko) Chrome/130.0.0.0 Safari/537.36" version="25.0.3">
  <diagram name="Page-1" id="2YBvvXClWsGukQMizWep">
    <mxGraphModel dx="1108" dy="1760" grid="1" gridSize="10" guides="1" tooltips="1" connect="1" arrows="0" fold="1" page="1" pageScale="1" pageWidth="850" pageHeight="1100" math="0" shadow="0">
      <root>
        <mxCell id="0" />
        <mxCell id="1" parent="0" />
        <mxCell id="aM9ryv3xv72pqoxQDRHE-1" value="User" style="shape=umlLifeline;perimeter=lifelinePerimeter;whiteSpace=wrap;html=1;container=0;dropTarget=0;collapsible=0;recursiveResize=0;outlineConnect=0;portConstraint=eastwest;newEdgeStyle={&quot;edgeStyle&quot;:&quot;elbowEdgeStyle&quot;,&quot;elbow&quot;:&quot;vertical&quot;,&quot;curved&quot;:0,&quot;rounded&quot;:0};" parent="1" vertex="1">
          <mxGeometry x="915" y="340" width="100" height="300" as="geometry" />
        </mxCell>
        <mxCell id="aM9ryv3xv72pqoxQDRHE-5" value="YouTube Data API v3" style="shape=umlLifeline;perimeter=lifelinePerimeter;whiteSpace=wrap;html=1;container=0;dropTarget=0;collapsible=0;recursiveResize=0;outlineConnect=0;portConstraint=eastwest;newEdgeStyle={&quot;edgeStyle&quot;:&quot;elbowEdgeStyle&quot;,&quot;elbow&quot;:&quot;vertical&quot;,&quot;curved&quot;:0,&quot;rounded&quot;:0};" parent="1" vertex="1">
          <mxGeometry x="1185" y="340" width="100" height="300" as="geometry" />
        </mxCell>
        <mxCell id="aM9ryv3xv72pqoxQDRHE-6" value="" style="html=1;points=[];perimeter=orthogonalPerimeter;outlineConnect=0;targetShapes=umlLifeline;portConstraint=eastwest;newEdgeStyle={&quot;edgeStyle&quot;:&quot;elbowEdgeStyle&quot;,&quot;elbow&quot;:&quot;vertical&quot;,&quot;curved&quot;:0,&quot;rounded&quot;:0};" parent="aM9ryv3xv72pqoxQDRHE-5" vertex="1">
          <mxGeometry x="45" y="75" width="10" height="170" as="geometry" />
        </mxCell>
        <mxCell id="aM9ryv3xv72pqoxQDRHE-7" value="dispatch" style="html=1;verticalAlign=bottom;endArrow=block;edgeStyle=elbowEdgeStyle;elbow=vertical;curved=0;rounded=0;" parent="1" source="aM9ryv3xv72pqoxQDRHE-2" target="aM9ryv3xv72pqoxQDRHE-6" edge="1">
          <mxGeometry relative="1" as="geometry">
            <mxPoint x="1070" y="430" as="sourcePoint" />
            <Array as="points">
              <mxPoint x="1055" y="420" />
            </Array>
          </mxGeometry>
        </mxCell>
        <mxCell id="aM9ryv3xv72pqoxQDRHE-8" value="return" style="html=1;verticalAlign=bottom;endArrow=open;dashed=1;endSize=8;edgeStyle=elbowEdgeStyle;elbow=vertical;curved=0;rounded=0;" parent="1" source="aM9ryv3xv72pqoxQDRHE-6" target="aM9ryv3xv72pqoxQDRHE-2" edge="1">
          <mxGeometry relative="1" as="geometry">
            <mxPoint x="1070" y="505" as="targetPoint" />
            <Array as="points">
              <mxPoint x="1065" y="580" />
            </Array>
          </mxGeometry>
        </mxCell>
        <mxCell id="aM9ryv3xv72pqoxQDRHE-9" value="callback" style="html=1;verticalAlign=bottom;endArrow=block;edgeStyle=elbowEdgeStyle;elbow=vertical;curved=0;rounded=0;" parent="1" source="aM9ryv3xv72pqoxQDRHE-6" target="aM9ryv3xv72pqoxQDRHE-4" edge="1">
          <mxGeometry relative="1" as="geometry">
            <mxPoint x="1050" y="460" as="sourcePoint" />
            <Array as="points">
              <mxPoint x="1065" y="460" />
            </Array>
          </mxGeometry>
        </mxCell>
        <mxCell id="aM9ryv3xv72pqoxQDRHE-10" value="return" style="html=1;verticalAlign=bottom;endArrow=open;dashed=1;endSize=8;edgeStyle=elbowEdgeStyle;elbow=vertical;curved=0;rounded=0;" parent="1" source="aM9ryv3xv72pqoxQDRHE-4" target="aM9ryv3xv72pqoxQDRHE-6" edge="1">
          <mxGeometry relative="1" as="geometry">
            <mxPoint x="1050" y="535" as="targetPoint" />
            <Array as="points">
              <mxPoint x="1055" y="530" />
            </Array>
          </mxGeometry>
        </mxCell>
        <mxCell id="aM9ryv3xv72pqoxQDRHE-2" value="" style="html=1;points=[];perimeter=orthogonalPerimeter;outlineConnect=0;targetShapes=umlLifeline;portConstraint=eastwest;newEdgeStyle={&quot;edgeStyle&quot;:&quot;elbowEdgeStyle&quot;,&quot;elbow&quot;:&quot;vertical&quot;,&quot;curved&quot;:0,&quot;rounded&quot;:0};" parent="1" vertex="1">
          <mxGeometry x="960" y="410" width="10" height="190" as="geometry" />
        </mxCell>
        <mxCell id="aM9ryv3xv72pqoxQDRHE-3" value="dispatch" style="html=1;verticalAlign=bottom;startArrow=oval;endArrow=block;startSize=8;edgeStyle=elbowEdgeStyle;elbow=vertical;curved=0;rounded=0;" parent="1" target="aM9ryv3xv72pqoxQDRHE-2" edge="1">
          <mxGeometry relative="1" as="geometry">
            <mxPoint x="900" y="410" as="sourcePoint" />
          </mxGeometry>
        </mxCell>
        <mxCell id="aM9ryv3xv72pqoxQDRHE-4" value="" style="html=1;points=[];perimeter=orthogonalPerimeter;outlineConnect=0;targetShapes=umlLifeline;portConstraint=eastwest;newEdgeStyle={&quot;edgeStyle&quot;:&quot;elbowEdgeStyle&quot;,&quot;elbow&quot;:&quot;vertical&quot;,&quot;curved&quot;:0,&quot;rounded&quot;:0};" parent="1" vertex="1">
          <mxGeometry x="965" y="460" width="10" height="80" as="geometry" />
        </mxCell>
        <mxCell id="FllBn6mnmVsICHXjcec_-12" value="" style="group" vertex="1" connectable="0" parent="1">
          <mxGeometry x="45" y="-75" width="70" height="95" as="geometry" />
        </mxCell>
        <mxCell id="FllBn6mnmVsICHXjcec_-1" value="" style="sketch=0;outlineConnect=0;fontColor=#232F3E;gradientColor=none;fillColor=#232F3D;strokeColor=none;dashed=0;verticalLabelPosition=bottom;verticalAlign=top;align=center;html=1;fontSize=12;fontStyle=0;aspect=fixed;pointerEvents=1;shape=mxgraph.aws4.user;" vertex="1" parent="FllBn6mnmVsICHXjcec_-12">
          <mxGeometry width="70" height="70" as="geometry" />
        </mxCell>
        <mxCell id="FllBn6mnmVsICHXjcec_-2" value="&lt;font&gt;&lt;b&gt;User&lt;/b&gt;&lt;/font&gt;" style="text;html=1;align=center;verticalAlign=middle;resizable=0;points=[];autosize=1;strokeColor=none;fillColor=none;spacing=0;fontFamily=Noto Sans Japanese;fontSource=https%3A%2F%2Ffonts.googleapis.com%2Fcss%3Ffamily%3DNoto%2BSans%2BJapanese;horizontal=1;labelPosition=center;verticalLabelPosition=middle;" vertex="1" parent="FllBn6mnmVsICHXjcec_-12">
          <mxGeometry x="10" y="75" width="50" height="20" as="geometry" />
        </mxCell>
        <mxCell id="FllBn6mnmVsICHXjcec_-16" value="" style="group" vertex="1" connectable="0" parent="1">
          <mxGeometry x="355" y="-75" width="90" height="95" as="geometry" />
        </mxCell>
        <mxCell id="FllBn6mnmVsICHXjcec_-8" value="" style="shape=image;verticalLabelPosition=bottom;labelBackgroundColor=default;verticalAlign=top;aspect=fixed;imageAspect=0;image=data:image/svg+xml,PHN2ZyB4bWxucz0iaHR0cDovL3d3dy53My5vcmcvMjAwMC9zdmciIHZpZXdCb3g9Ii0wLjE3MDkwMTk4NTU4NjM1OTgzIDAuNDgyMjMwMTQ4NzE3OTM3IDQxLjE0MjM1MzE4MjgzODkxIDQwLjAzMzk1MDkwNzYzODYiIGNsYXNzPSJoLTYgdy02IiBzdHJva2Utd2lkdGg9IjEuNSIgZmlsbD0ibm9uZSIgaGVpZ2h0PSIyNTAwIiB3aWR0aD0iMjUwMCI+PHRleHQgeT0iLTk5OTkiIHg9Ii05OTk5Ij5DaGF0R1BUPC90ZXh0PjxwYXRoIGZpbGw9ImN1cnJlbnRDb2xvciIgZD0iTTM3LjUzMiAxNi44N2E5Ljk2MyA5Ljk2MyAwIDAgMC0uODU2LTguMTg0IDEwLjA3OCAxMC4wNzggMCAwIDAtMTAuODU1LTQuODM1QTkuOTY0IDkuOTY0IDAgMCAwIDE4LjMwNi41YTEwLjA3OSAxMC4wNzkgMCAwIDAtOS42MTQgNi45NzcgOS45NjcgOS45NjcgMCAwIDAtNi42NjQgNC44MzQgMTAuMDggMTAuMDggMCAwIDAgMS4yNCAxMS44MTcgOS45NjUgOS45NjUgMCAwIDAgLjg1NiA4LjE4NSAxMC4wNzkgMTAuMDc5IDAgMCAwIDEwLjg1NSA0LjgzNSA5Ljk2NSA5Ljk2NSAwIDAgMCA3LjUxNiAzLjM1IDEwLjA3OCAxMC4wNzggMCAwIDAgOS42MTctNi45ODEgOS45NjcgOS45NjcgMCAwIDAgNi42NjMtNC44MzQgMTAuMDc5IDEwLjA3OSAwIDAgMC0xLjI0My0xMS44MTN6TTIyLjQ5OCAzNy44ODZhNy40NzQgNy40NzQgMCAwIDEtNC43OTktMS43MzVjLjA2MS0uMDMzLjE2OC0uMDkxLjIzNy0uMTM0bDcuOTY0LTQuNmExLjI5NCAxLjI5NCAwIDAgMCAuNjU1LTEuMTM0VjE5LjA1NGwzLjM2NiAxLjk0NGEuMTIuMTIgMCAwIDEgLjA2Ni4wOTJ2OS4yOTlhNy41MDUgNy41MDUgMCAwIDEtNy40OSA3LjQ5NnpNNi4zOTIgMzEuMDA2YTcuNDcxIDcuNDcxIDAgMCAxLS44OTQtNS4wMjNjLjA2LjAzNi4xNjIuMDk5LjIzNy4xNDFsNy45NjQgNC42YTEuMjk3IDEuMjk3IDAgMCAwIDEuMzA4IDBsOS43MjQtNS42MTR2My44ODhhLjEyLjEyIDAgMCAxLS4wNDguMTAzbC04LjA1MSA0LjY0OWE3LjUwNCA3LjUwNCAwIDAgMS0xMC4yNC0yLjc0NHpNNC4yOTcgMTMuNjJBNy40NjkgNy40NjkgMCAwIDEgOC4yIDEwLjMzM2MwIC4wNjgtLjAwNC4xOS0uMDA0LjI3NHY5LjIwMWExLjI5NCAxLjI5NCAwIDAgMCAuNjU0IDEuMTMybDkuNzIzIDUuNjE0LTMuMzY2IDEuOTQ0YS4xMi4xMiAwIDAgMS0uMTE0LjAxTDcuMDQgMjMuODU2YTcuNTA0IDcuNTA0IDAgMCAxLTIuNzQzLTEwLjIzN3ptMjcuNjU4IDYuNDM3bC05LjcyNC01LjYxNSAzLjM2Ny0xLjk0M2EuMTIxLjEyMSAwIDAgMSAuMTEzLS4wMWw4LjA1MiA0LjY0OGE3LjQ5OCA3LjQ5OCAwIDAgMS0xLjE1OCAxMy41Mjh2LTkuNDc2YTEuMjkzIDEuMjkzIDAgMCAwLS42NS0xLjEzMnptMy4zNS01LjA0M2MtLjA1OS0uMDM3LS4xNjItLjA5OS0uMjM2LS4xNDFsLTcuOTY1LTQuNmExLjI5OCAxLjI5OCAwIDAgMC0xLjMwOCAwbC05LjcyMyA1LjYxNHYtMy44ODhhLjEyLjEyIDAgMCAxIC4wNDgtLjEwM2w4LjA1LTQuNjQ1YTcuNDk3IDcuNDk3IDAgMCAxIDExLjEzNSA3Ljc2M3ptLTIxLjA2MyA2LjkyOWwtMy4zNjctMS45NDRhLjEyLjEyIDAgMCAxLS4wNjUtLjA5MnYtOS4yOTlhNy40OTcgNy40OTcgMCAwIDEgMTIuMjkzLTUuNzU2IDYuOTQgNi45NCAwIDAgMC0uMjM2LjEzNGwtNy45NjUgNC42YTEuMjk0IDEuMjk0IDAgMCAwLS42NTQgMS4xMzJsLS4wMDYgMTEuMjI1em0xLjgyOS0zLjk0M2w0LjMzLTIuNTAxIDQuMzMyIDIuNXY1bC00LjMzMSAyLjUtNC4zMzEtMi41VjE4eiIvPjwvc3ZnPg==;" vertex="1" parent="FllBn6mnmVsICHXjcec_-16">
          <mxGeometry x="10" width="70" height="70" as="geometry" />
        </mxCell>
        <mxCell id="FllBn6mnmVsICHXjcec_-9" value="&lt;b&gt;GPT-4o mini&lt;/b&gt;" style="text;html=1;align=center;verticalAlign=middle;resizable=0;points=[];autosize=1;strokeColor=none;fillColor=none;spacing=0;fontFamily=Noto Sans Japanese;fontSource=https%3A%2F%2Ffonts.googleapis.com%2Fcss%3Ffamily%3DNoto%2BSans%2BJapanese;" vertex="1" parent="FllBn6mnmVsICHXjcec_-16">
          <mxGeometry y="75" width="90" height="20" as="geometry" />
        </mxCell>
        <mxCell id="FllBn6mnmVsICHXjcec_-21" value="" style="group" vertex="1" connectable="0" parent="1">
          <mxGeometry x="189.99999999999997" y="-82.5" width="100.00000000000003" height="110" as="geometry" />
        </mxCell>
        <mxCell id="FllBn6mnmVsICHXjcec_-7" value="&lt;font&gt;&lt;b&gt;YouTube Data&lt;/b&gt;&lt;/font&gt;&lt;div&gt;&lt;font&gt;&lt;b&gt;API v3&lt;/b&gt;&lt;/font&gt;&lt;/div&gt;" style="text;html=1;align=center;verticalAlign=middle;resizable=0;points=[];autosize=1;strokeColor=none;fillColor=none;spacing=0;fontFamily=Noto Sans Japanese;fontSource=https%3A%2F%2Ffonts.googleapis.com%2Fcss%3Ffamily%3DNoto%2BSans%2BJapanese;" vertex="1" parent="FllBn6mnmVsICHXjcec_-21">
          <mxGeometry y="70" width="100" height="40" as="geometry" />
        </mxCell>
        <mxCell id="FllBn6mnmVsICHXjcec_-19" value="" style="group" vertex="1" connectable="0" parent="FllBn6mnmVsICHXjcec_-21">
          <mxGeometry x="10.000000000000028" width="80" height="80" as="geometry" />
        </mxCell>
        <mxCell id="FllBn6mnmVsICHXjcec_-4" value="" style="shape=image;verticalLabelPosition=bottom;labelBackgroundColor=default;verticalAlign=top;aspect=fixed;imageAspect=0;image=https://upload.wikimedia.org/wikipedia/commons/thumb/0/09/YouTube_full-color_icon_%282017%29.svg/512px-YouTube_full-color_icon_%282017%29.svg.png;" vertex="1" parent="FllBn6mnmVsICHXjcec_-19">
          <mxGeometry x="5.009999999999991" y="15" width="69.99" height="49.08" as="geometry" />
        </mxCell>
        <mxCell id="FllBn6mnmVsICHXjcec_-18" value="" style="whiteSpace=wrap;html=1;fillColor=none;strokeColor=none;" vertex="1" parent="FllBn6mnmVsICHXjcec_-19">
          <mxGeometry width="80" height="80" as="geometry" />
        </mxCell>
        <mxCell id="FllBn6mnmVsICHXjcec_-22" value="" style="group" vertex="1" connectable="0" parent="1">
          <mxGeometry x="520" y="-75" width="80" height="95.46000000000001" as="geometry" />
        </mxCell>
        <mxCell id="FllBn6mnmVsICHXjcec_-10" value="" style="shape=image;verticalLabelPosition=bottom;labelBackgroundColor=default;verticalAlign=top;aspect=fixed;imageAspect=0;image=data:image/svg+xml,PHN2ZyB4bWxuczp4bGluaz0iaHR0cDovL3d3dy53My5vcmcvMTk5OS94bGluayIgeG1sbnM9Imh0dHA6Ly93d3cudzMub3JnLzIwMDAvc3ZnIiBzdHlsZT0ic2hhcGUtcmVuZGVyaW5nOmdlb21ldHJpY1ByZWNpc2lvbjsgdGV4dC1yZW5kZXJpbmc6Z2VvbWV0cmljUHJlY2lzaW9uOyBpbWFnZS1yZW5kZXJpbmc6b3B0aW1pemVRdWFsaXR5OyBmaWxsLXJ1bGU6ZXZlbm9kZDsgY2xpcC1ydWxlOmV2ZW5vZGQiIGhlaWdodD0iMTAyNHB4IiB3aWR0aD0iMTAyNHB4IiB2ZXJzaW9uPSIxLjEiIHZpZXdCb3g9IjAgMCAxMDI0IDEwMjQiPiYjeGE7PGc+PHBhdGggZD0iTSAtMC41LC0wLjUgQyAzNDAuODMzLC0wLjUgNjgyLjE2NywtMC41IDEwMjMuNSwtMC41QyAxMDIzLjUsMzQwLjgzMyAxMDIzLjUsNjgyLjE2NyAxMDIzLjUsMTAyMy41QyA2ODIuMTY3LDEwMjMuNSAzNDAuODMzLDEwMjMuNSAtMC41LDEwMjMuNUMgLTAuNSw2ODIuMTY3IC0wLjUsMzQwLjgzMyAtMC41LC0wLjUgWiIgZmlsbD0iI2E1ZDRhZCIgc3R5bGU9Im9wYWNpdHk6MSIvPjwvZz4mI3hhOzxnPjxwYXRoIGQ9Ik0gMjk3LjUsMjQwLjUgQyAzMDIuNDg5LDIzOS44MzQgMzA3LjY1NiwyMzkuNTAxIDMxMywyMzkuNUMgMzIwLjcyOCwyMzkuMzE2IDMyOC4yMjgsMjM5Ljk4MyAzMzUuNSwyNDEuNUMgMzIyLjg0OCwyNDAuNzM5IDMxMC4xODEsMjQwLjQwNSAyOTcuNSwyNDAuNSBaIiBmaWxsPSIjYmFkZGMwIiBzdHlsZT0ib3BhY2l0eToxIi8+PC9nPiYjeGE7PGc+PHBhdGggZD0iTSA2OTEuNSwyNDAuNSBDIDcwMC4zMjQsMjM5LjM0MyA3MDkuMzI0LDIzOS4xNzYgNzE4LjUsMjQwQyA3MjEuNzk3LDI0MC4yMDQgNzI0Ljc5NywyNDEuMDM3IDcyNy41LDI0Mi41QyA3MTUuNTY5LDI0MC44MzYgNzAzLjU2OSwyNDAuMTY5IDY5MS41LDI0MC41IFoiIGZpbGw9IiNiNWRiYmMiIHN0eWxlPSJvcGFjaXR5OjEiLz48L2c+JiN4YTs8Zz48cGF0aCBkPSJNIDI5Ny41LDI0MC41IEMgMzEwLjE4MSwyNDAuNDA1IDMyMi44NDgsMjQwLjczOSAzMzUuNSwyNDEuNUMgMzUwLjQ5OSwyNDQuNjU1IDM2Mi40OTksMjUyLjMyMiAzNzEuNSwyNjQuNUMgMzcxLjQyNywyNjYuMDI3IDM3Mi4wOTQsMjY3LjAyNyAzNzMuNSwyNjcuNUMgMzc1LjM0MSwyNjkuODQ5IDM3Ni42NzQsMjcyLjUxNSAzNzcuNSwyNzUuNUMgMzc3LjE2NiwyNzguNDkxIDM3OC4xNjYsMjgwLjgyNCAzODAuNSwyODIuNUMgMzgwLjY3NywyODYuNzA4IDM4Mi4wMSwyOTAuMzc0IDM4NC41LDI5My41QyAzODQuNSwyOTMuODMzIDM4NC41LDI5NC4xNjcgMzg0LjUsMjk0LjVDIDM4NC43MjMsMjk4LjE2MiAzODUuNzIzLDMwMS40OTUgMzg3LjUsMzA0LjVDIDM4OC4zMzgsMzA0Ljg0MiAzODguNjcyLDMwNS41MDggMzg4LjUsMzA2LjVDIDQwNy43MjQsMzY3LjE3MyA0MjcuNzI0LDQyNy41MDYgNDQ4LjUsNDg3LjVDIDQ0OS40NTgsNDg5LjMwMiA0NTAuMTI1LDQ5MS4zMDIgNDUwLjUsNDkzLjVDIDQ1OS43MjQsNTI0LjE3MiA0NjkuNzI0LDU1NC41MDYgNDgwLjUsNTg0LjVDIDQ4OS4xNTQsNjEyLjk2NCA0OTguMzIxLDY0MS4yOTcgNTA4LDY2OS41QyA1MDguMzgzLDY3MC4wNTYgNTA4Ljg4Myw2NzAuMzg5IDUwOS41LDY3MC41QyA1MTAuMjA5LDY3MS40MDQgNTExLjIwOSw2NzEuNzM3IDUxMi41LDY3MS41QyA1MTMuMzc0LDY2OC4yMTEgNTE0LjA0MSw2NjQuODc3IDUxNC41LDY2MS41QyA1MTQuODc1LDY1OS4zMDIgNTE1LjU0Miw2NTcuMzAyIDUxNi41LDY1NS41QyA1NTguMjc1LDUzMi41MDcgNTk5LjI3NSw0MDkuMTczIDYzOS41LDI4NS41QyA2MzkuNzk2LDI4My41OTcgNjQwLjQ2MywyODEuOTMgNjQxLjUsMjgwLjVDIDY0My44MzQsMjc4LjgyNCA2NDQuODM0LDI3Ni40OTEgNjQ0LjUsMjczLjVDIDY0NC42NiwyNzEuODQ3IDY0NS4zMjYsMjcwLjUxNCA2NDYuNSwyNjkuNUMgNjQ3LjkwNiwyNjkuMDI3IDY0OC41NzMsMjY4LjAyNyA2NDguNSwyNjYuNUMgNjUzLjYxLDI1Ny4zOSA2NjAuOTQzLDI1MC43MjQgNjcwLjUsMjQ2LjVDIDY3Mi44MTksMjQ2LjAwOCA2NzQuODE5LDI0NS4wMDggNjc2LjUsMjQzLjVDIDY4MS41MzEsMjQyLjYyNyA2ODYuNTMxLDI0MS42MjcgNjkxLjUsMjQwLjVDIDcwMy41NjksMjQwLjE2OSA3MTUuNTY5LDI0MC44MzYgNzI3LjUsMjQyLjVDIDczNC4yMSwyNDMuNjg2IDczOS44NzcsMjQ2LjY4NiA3NDQuNSwyNTEuNUMgNzQ0LjQyNywyNTMuMDI3IDc0NS4wOTQsMjU0LjAyNyA3NDYuNSwyNTQuNUMgNzQ3LjMzOCwyNTQuODQyIDc0Ny42NzIsMjU1LjUwOCA3NDcuNSwyNTYuNUMgNzUwLjA3NCwyNjUuMTQ2IDc1MC4wNzQsMjczLjgxMiA3NDcuNSwyODIuNUMgNzQ2LjUxMiwyODUuMDgxIDc0NS41MTIsMjg3Ljc0OCA3NDQuNSwyOTAuNUMgNzQzLjQ2MywyOTEuOTMgNzQyLjc5NiwyOTMuNTk3IDc0Mi41LDI5NS41QyA3NDIuNSwyOTUuODMzIDc0Mi41LDI5Ni4xNjcgNzQyLjUsMjk2LjVDIDc0MC45MzUsMjk4LjUwOSA3MzkuOTM1LDMwMC44NDMgNzM5LjUsMzAzLjVDIDczOS41LDMwMy44MzMgNzM5LjUsMzA0LjE2NyA3MzkuNSwzMDQuNUMgNzM3LjkzNSwzMDYuNTA5IDczNi45MzUsMzA4Ljg0MyA3MzYuNSwzMTEuNUMgNzM2LjUsMzExLjgzMyA3MzYuNSwzMTIuMTY3IDczNi41LDMxMi41QyA3MzQuOTM1LDMxNC41MDkgNzMzLjkzNSwzMTYuODQzIDczMy41LDMxOS41QyA3MzMuNSwzMTkuODMzIDczMy41LDMyMC4xNjcgNzMzLjUsMzIwLjVDIDczMS45MzUsMzIyLjUwOSA3MzAuOTM1LDMyNC44NDMgNzMwLjUsMzI3LjVDIDczMC41LDMyNy44MzMgNzMwLjUsMzI4LjE2NyA3MzAuNSwzMjguNUMgNzI4LjkzNSwzMzAuNTA5IDcyNy45MzUsMzMyLjg0MyA3MjcuNSwzMzUuNUMgNzI1LjUsMzQwLjgzMyA3MjMuNSwzNDYuMTY3IDcyMS41LDM1MS41QyA3MjAuNDYzLDM1Mi45MyA3MTkuNzk2LDM1NC41OTcgNzE5LjUsMzU2LjVDIDcxOS41LDM1Ni44MzMgNzE5LjUsMzU3LjE2NyA3MTkuNSwzNTcuNUMgNzE3LjYsMzYwLjUxOCA3MTYuMjY3LDM2My44NTEgNzE1LjUsMzY3LjVDIDcxNC40NjMsMzY4LjkzIDcxMy43OTYsMzcwLjU5NyA3MTMuNSwzNzIuNUMgNzEzLjUsMzcyLjgzMyA3MTMuNSwzNzMuMTY3IDcxMy41LDM3My41QyA3MTEuNiwzNzYuNTE4IDcxMC4yNjcsMzc5Ljg1MSA3MDkuNSwzODMuNUMgNzA4LjQ2MywzODQuOTMgNzA3Ljc5NiwzODYuNTk3IDcwNy41LDM4OC41QyA3MDUuOTE0LDM5MS4yNTcgNzA0LjkxNCwzOTQuMjU3IDcwNC41LDM5Ny41QyA3MDIuOTM1LDM5OS41MDkgNzAxLjkzNSw0MDEuODQzIDcwMS41LDQwNC41QyA2OTguMTE3LDQxMi4zMTEgNjk1LjExNyw0MjAuMzExIDY5Mi41LDQyOC41QyA2OTEuNDYzLDQyOS45MyA2OTAuNzk2LDQzMS41OTcgNjkwLjUsNDMzLjVDIDY5MC41LDQzMy44MzMgNjkwLjUsNDM0LjE2NyA2OTAuNSw0MzQuNUMgNjg4LjYsNDM3LjUxOCA2ODcuMjY3LDQ0MC44NTEgNjg2LjUsNDQ0LjVDIDY4NS40NjMsNDQ1LjkzIDY4NC43OTYsNDQ3LjU5NyA2ODQuNSw0NDkuNUMgNjg0LjUsNDQ5LjgzMyA2ODQuNSw0NTAuMTY3IDY4NC41LDQ1MC41QyA2ODIuNiw0NTMuNTE4IDY4MS4yNjcsNDU2Ljg1MSA2ODAuNSw0NjAuNUMgNjc5LjQ2Myw0NjEuOTMgNjc4Ljc5Niw0NjMuNTk3IDY3OC41LDQ2NS41QyA2NzguNDQzLDQ2Ni42MDkgNjc4LjExLDQ2Ny42MDkgNjc3LjUsNDY4LjVDIDY3Ni40NjMsNDY5LjkzIDY3NS43OTYsNDcxLjU5NyA2NzUuNSw0NzMuNUMgNjc1LjUsNDczLjgzMyA2NzUuNSw0NzQuMTY3IDY3NS41LDQ3NC41QyA2NzMuOTM1LDQ3Ni41MDkgNjcyLjkzNSw0NzguODQzIDY3Mi41LDQ4MS41QyA2NzIuNDQzLDQ4Mi42MDkgNjcyLjExLDQ4My42MDkgNjcxLjUsNDg0LjVDIDY3MC40NjMsNDg1LjkzIDY2OS43OTYsNDg3LjU5NyA2NjkuNSw0ODkuNUMgNjY5LjQ0Myw0OTAuNjA5IDY2OS4xMSw0OTEuNjA5IDY2OC41LDQ5Mi41QyA2NjcuNDYzLDQ5My45MyA2NjYuNzk2LDQ5NS41OTcgNjY2LjUsNDk3LjVDIDY2Ni40NDMsNDk4LjYwOSA2NjYuMTEsNDk5LjYwOSA2NjUuNSw1MDAuNUMgNjY0LjQ2Myw1MDEuOTMgNjYzLjc5Niw1MDMuNTk3IDY2My41LDUwNS41QyA2NjMuNDQzLDUwNi42MDkgNjYzLjExLDUwNy42MDkgNjYyLjUsNTA4LjVDIDY2MS40NjMsNTA5LjkzIDY2MC43OTYsNTExLjU5NyA2NjAuNSw1MTMuNUMgNjU3LjExNyw1MjEuMzExIDY1NC4xMTcsNTI5LjMxMSA2NTEuNSw1MzcuNUMgNjUwLjQ2Myw1MzguOTMgNjQ5Ljc5Niw1NDAuNTk3IDY0OS41LDU0Mi41QyA2NDkuNSw1NDMuMTY3IDY0OS41LDU0My44MzMgNjQ5LjUsNTQ0LjVDIDY0OC4wOTQsNTQ0Ljk3MyA2NDcuNDI3LDU0NS45NzMgNjQ3LjUsNTQ3LjVDIDY0NC44MzMsNTU0LjgzMyA2NDIuMTY3LDU2Mi4xNjcgNjM5LjUsNTY5LjVDIDYzOC40NjMsNTcwLjkzIDYzNy43OTYsNTcyLjU5NyA2MzcuNSw1NzQuNUMgNjM3LjQ0Myw1NzUuNjA5IDYzNy4xMSw1NzYuNjA5IDYzNi41LDU3Ny41QyA2MzUuNDYzLDU3OC45MyA2MzQuNzk2LDU4MC41OTcgNjM0LjUsNTgyLjVDIDYzNC40NDMsNTgzLjYwOSA2MzQuMTEsNTg0LjYwOSA2MzMuNSw1ODUuNUMgNjMyLjQ2Myw1ODYuOTMgNjMxLjc5Niw1ODguNTk3IDYzMS41LDU5MC41QyA2MjguMDQ2LDU5Ny44NjIgNjI1LjM3OSw2MDUuNTI5IDYyMy41LDYxMy41QyA2MjIuMDk0LDYxMy45NzMgNjIxLjQyNyw2MTQuOTczIDYyMS41LDYxNi41QyA2MjAuMTM1LDYyMS4zMDggNjE4LjQ2OCw2MjUuOTc0IDYxNi41LDYzMC41QyA2MTUuNDYzLDYzMS45MyA2MTQuNzk2LDYzMy41OTcgNjE0LjUsNjM1LjVDIDYxNC40NDMsNjM2LjYwOSA2MTQuMTEsNjM3LjYwOSA2MTMuNSw2MzguNUMgNjEyLjQ2Myw2MzkuOTMgNjExLjc5Niw2NDEuNTk3IDYxMS41LDY0My41QyA2MTEuNDQzLDY0NC42MDkgNjExLjExLDY0NS42MDkgNjEwLjUsNjQ2LjVDIDYwOS40NjMsNjQ3LjkzIDYwOC43OTYsNjQ5LjU5NyA2MDguNSw2NTEuNUMgNjA4LjQ0Myw2NTIuNjA5IDYwOC4xMSw2NTMuNjA5IDYwNy41LDY1NC41QyA2MDYuNDYzLDY1NS45MyA2MDUuNzk2LDY1Ny41OTcgNjA1LjUsNjU5LjVDIDYwNS40NDMsNjYwLjYwOSA2MDUuMTEsNjYxLjYwOSA2MDQuNSw2NjIuNUMgNjAzLjQ2Myw2NjMuOTMgNjAyLjc5Niw2NjUuNTk3IDYwMi41LDY2Ny41QyA1OTkuMDQ2LDY3NC44NjIgNTk2LjM3OSw2ODIuNTI5IDU5NC41LDY5MC41QyA1OTMuMDk0LDY5MC45NzMgNTkyLjQyNyw2OTEuOTczIDU5Mi41LDY5My41QyA1OTEuMTMyLDY5OC4zMjQgNTg5LjQ2NSw3MDIuOTkxIDU4Ny41LDcwNy41QyA1ODYuNDYzLDcwOC45MyA1ODUuNzk2LDcxMC41OTcgNTg1LjUsNzEyLjVDIDU4NS40NDMsNzEzLjYwOSA1ODUuMTEsNzE0LjYwOSA1ODQuNSw3MTUuNUMgNTgzLjQ2Myw3MTYuOTMgNTgyLjc5Niw3MTguNTk3IDU4Mi41LDcyMC41QyA1ODIuNDQzLDcyMS42MDkgNTgyLjExLDcyMi42MDkgNTgxLjUsNzIzLjVDIDU4MC40NjMsNzI0LjkzIDU3OS43OTYsNzI2LjU5NyA1NzkuNSw3MjguNUMgNTczLjM2Myw3NDcuNjM5IDU2MC42OTYsNzU5Ljk3MiA1NDEuNSw3NjUuNUMgNTM2LjcxNyw3NjYuNTA5IDUzMi4wNSw3NjcuNTA5IDUyNy41LDc2OC41QyA1MTQuNDk2LDc2OC42NjcgNTAxLjQ5Niw3NjguNSA0ODguNSw3NjhDIDQ4Ni40MTQsNzY3LjY4NSA0ODQuNDE0LDc2Ny4xODUgNDgyLjUsNzY2LjVDIDQ4MC42OTgsNzY1LjU0MiA0NzguNjk4LDc2NC44NzUgNDc2LjUsNzY0LjVDIDQ2MC43NjMsNzYwLjA5IDQ0OS43NjMsNzUwLjQyMyA0NDMuNSw3MzUuNUMgNDQzLjA2NSw3MzIuODQzIDQ0Mi4wNjUsNzMwLjUwOSA0NDAuNSw3MjguNUMgNDQwLjUsNzI4LjE2NyA0NDAuNSw3MjcuODMzIDQ0MC41LDcyNy41QyA0NDAuMjA0LDcyNS41OTcgNDM5LjUzNyw3MjMuOTMgNDM4LjUsNzIyLjVDIDQzNy43MzMsNzE4Ljg1MSA0MzYuNCw3MTUuNTE4IDQzNC41LDcxMi41QyA0MzQuNSw3MTIuMTY3IDQzNC41LDcxMS44MzMgNDM0LjUsNzExLjVDIDQzNC4yMDQsNzA5LjU5NyA0MzMuNTM3LDcwNy45MyA0MzIuNSw3MDYuNUMgNDMxLjg5LDcwNS42MDkgNDMxLjU1Nyw3MDQuNjA5IDQzMS41LDcwMy41QyA0MzEuMjA0LDcwMS41OTcgNDMwLjUzNyw2OTkuOTMgNDI5LjUsNjk4LjVDIDQyOC44OSw2OTcuNjA5IDQyOC41NTcsNjk2LjYwOSA0MjguNSw2OTUuNUMgNDI4LjIwNCw2OTMuNTk3IDQyNy41MzcsNjkxLjkzIDQyNi41LDY5MC41QyA0MjUuODksNjg5LjYwOSA0MjUuNTU3LDY4OC42MDkgNDI1LjUsNjg3LjVDIDQyNS4wNjUsNjg0Ljg0MyA0MjQuMDY1LDY4Mi41MDkgNDIyLjUsNjgwLjVDIDQyMi4wODYsNjc3LjI1NyA0MjEuMDg2LDY3NC4yNTcgNDE5LjUsNjcxLjVDIDQxOS4yMDQsNjY5LjU5NyA0MTguNTM3LDY2Ny45MyA0MTcuNSw2NjYuNUMgNDE2Ljg5LDY2NS42MDkgNDE2LjU1Nyw2NjQuNjA5IDQxNi41LDY2My41QyA0MTYuMDY1LDY2MC44NDMgNDE1LjA2NSw2NTguNTA5IDQxMy41LDY1Ni41QyA0MTMuNSw2NTYuMTY3IDQxMy41LDY1NS44MzMgNDEzLjUsNjU1LjVDIDQxMy4wNjUsNjUyLjg0MyA0MTIuMDY1LDY1MC41MDkgNDEwLjUsNjQ4LjVDIDQxMC41LDY0OC4xNjcgNDEwLjUsNjQ3LjgzMyA0MTAuNSw2NDcuNUMgNDEwLjA2NSw2NDQuODQzIDQwOS4wNjUsNjQyLjUwOSA0MDcuNSw2NDAuNUMgNDA2LjYxMSw2MzYuMzA1IDQwNS4yNzgsNjMyLjMwNSA0MDMuNSw2MjguNUMgNDAzLjIwNCw2MjYuNTk3IDQwMi41MzcsNjI0LjkzIDQwMS41LDYyMy41QyAzOTguODgzLDYxNS4zMTEgMzk1Ljg4Myw2MDcuMzExIDM5Mi41LDU5OS41QyAzOTIuMDY1LDU5Ni44NDMgMzkxLjA2NSw1OTQuNTA5IDM4OS41LDU5Mi41QyAzODguNjExLDU4OC4zMDUgMzg3LjI3OCw1ODQuMzA1IDM4NS41LDU4MC41QyAzODUuMjA0LDU3OC41OTcgMzg0LjUzNyw1NzYuOTMgMzgzLjUsNTc1LjVDIDM4Mi43MzMsNTcxLjg1MSAzODEuNCw1NjguNTE4IDM3OS41LDU2NS41QyAzNzkuNSw1NjUuMTY3IDM3OS41LDU2NC44MzMgMzc5LjUsNTY0LjVDIDM3OS4yMDQsNTYyLjU5NyAzNzguNTM3LDU2MC45MyAzNzcuNSw1NTkuNUMgMzc2LjczMyw1NTUuODUxIDM3NS40LDU1Mi41MTggMzczLjUsNTQ5LjVDIDM3My41LDU0OS4xNjcgMzczLjUsNTQ4LjgzMyAzNzMuNSw1NDguNUMgMzczLjA2NSw1NDUuODQzIDM3Mi4wNjUsNTQzLjUwOSAzNzAuNSw1NDEuNUMgMzcwLjUsNTQxLjE2NyAzNzAuNSw1NDAuODMzIDM3MC41LDU0MC41QyAzNzAuMjA0LDUzOC41OTcgMzY5LjUzNyw1MzYuOTMgMzY4LjUsNTM1LjVDIDM2Ny43MzMsNTMxLjg1MSAzNjYuNCw1MjguNTE4IDM2NC41LDUyNS41QyAzNjQuNSw1MjUuMTY3IDM2NC41LDUyNC44MzMgMzY0LjUsNTI0LjVDIDM2NC4wNjUsNTIxLjg0MyAzNjMuMDY1LDUxOS41MDkgMzYxLjUsNTE3LjVDIDM2MS41LDUxNy4xNjcgMzYxLjUsNTE2LjgzMyAzNjEuNSw1MTYuNUMgMzYxLjIwNCw1MTQuNTk3IDM2MC41MzcsNTEyLjkzIDM1OS41LDUxMS41QyAzNTguNzMzLDUwNy44NTEgMzU3LjQsNTA0LjUxOCAzNTUuNSw1MDEuNUMgMzU1LjUsNTAxLjE2NyAzNTUuNSw1MDAuODMzIDM1NS41LDUwMC41QyAzNTUuMjA0LDQ5OC41OTcgMzU0LjUzNyw0OTYuOTMgMzUzLjUsNDk1LjVDIDM1Mi43MzMsNDkxLjg1MSAzNTEuNCw0ODguNTE4IDM0OS41LDQ4NS41QyAzNDkuNSw0ODUuMTY3IDM0OS41LDQ4NC44MzMgMzQ5LjUsNDg0LjVDIDM0OS4wNjUsNDgxLjg0MyAzNDguMDY1LDQ3OS41MDkgMzQ2LjUsNDc3LjVDIDM0Ni41LDQ3Ny4xNjcgMzQ2LjUsNDc2LjgzMyAzNDYuNSw0NzYuNUMgMzQ2LjA2NSw0NzMuODQzIDM0NS4wNjUsNDcxLjUwOSAzNDMuNSw0NjkuNUMgMzQxLjY1NCw0NjMuNzg1IDMzOS42NTQsNDU4LjExOCAzMzcuNSw0NTIuNUMgMzM2LjczMyw0NDguODUxIDMzNS40LDQ0NS41MTggMzMzLjUsNDQyLjVDIDMzMy41LDQ0Mi4xNjcgMzMzLjUsNDQxLjgzMyAzMzMuNSw0NDEuNUMgMzMzLjIwNCw0MzkuNTk3IDMzMi41MzcsNDM3LjkzIDMzMS41LDQzNi41QyAzMzEuMDY1LDQzMy44NDMgMzMwLjA2NSw0MzEuNTA5IDMyOC41LDQyOS41QyAzMjguNSw0MjkuMTY3IDMyOC41LDQyOC44MzMgMzI4LjUsNDI4LjVDIDMyOC4wNjUsNDI1Ljg0MyAzMjcuMDY1LDQyMy41MDkgMzI1LjUsNDIxLjVDIDMyNS41LDQyMS4xNjcgMzI1LjUsNDIwLjgzMyAzMjUuNSw0MjAuNUMgMzI1LjA2NSw0MTcuODQzIDMyNC4wNjUsNDE1LjUwOSAzMjIuNSw0MTMuNUMgMzIxLjczLDQwOS4yOTcgMzIwLjM5Niw0MDUuMjk3IDMxOC41LDQwMS41QyAzMTguMjA0LDM5OS41OTcgMzE3LjUzNywzOTcuOTMgMzE2LjUsMzk2LjVDIDMxNS43MzMsMzkyLjg1MSAzMTQuNCwzODkuNTE4IDMxMi41LDM4Ni41QyAzMTIuNSwzODYuMTY3IDMxMi41LDM4NS44MzMgMzEyLjUsMzg1LjVDIDMxMi4yMDQsMzgzLjU5NyAzMTEuNTM3LDM4MS45MyAzMTAuNSwzODAuNUMgMzA5LjczMywzNzYuODUxIDMwOC40LDM3My41MTggMzA2LjUsMzcwLjVDIDMwNi41LDM3MC4xNjcgMzA2LjUsMzY5LjgzMyAzMDYuNSwzNjkuNUMgMzA2LjIwNCwzNjcuNTk3IDMwNS41MzcsMzY1LjkzIDMwNC41LDM2NC41QyAzMDMuNzMzLDM2MC44NTEgMzAyLjQsMzU3LjUxOCAzMDAuNSwzNTQuNUMgMzAwLjUsMzU0LjE2NyAzMDAuNSwzNTMuODMzIDMwMC41LDM1My41QyAzMDAuMjA0LDM1MS41OTcgMjk5LjUzNywzNDkuOTMgMjk4LjUsMzQ4LjVDIDI5Ny43MzMsMzQ0Ljg1MSAyOTYuNCwzNDEuNTE4IDI5NC41LDMzOC41QyAyOTQuNSwzMzguMTY3IDI5NC41LDMzNy44MzMgMjk0LjUsMzM3LjVDIDI5NC4yMDQsMzM1LjU5NyAyOTMuNTM3LDMzMy45MyAyOTIuNSwzMzIuNUMgMjkxLjczMywzMjguODUxIDI5MC40LDMyNS41MTggMjg4LjUsMzIyLjVDIDI4OC41LDMyMi4xNjcgMjg4LjUsMzIxLjgzMyAyODguNSwzMjEuNUMgMjg4LjIwNCwzMTkuNTk3IDI4Ny41MzcsMzE3LjkzIDI4Ni41LDMxNi41QyAyODUuNzMzLDMxMi44NTEgMjg0LjQsMzA5LjUxOCAyODIuNSwzMDYuNUMgMjgyLjUsMzA2LjE2NyAyODIuNSwzMDUuODMzIDI4Mi41LDMwNS41QyAyODIuMjA0LDMwMy41OTcgMjgxLjUzNywzMDEuOTMgMjgwLjUsMzAwLjVDIDI3OS43MzMsMjk2Ljg1MSAyNzguNCwyOTMuNTE4IDI3Ni41LDI5MC41QyAyNzYuNSwyOTAuMTY3IDI3Ni41LDI4OS44MzMgMjc2LjUsMjg5LjVDIDI3NS43MzMsMjg1Ljg1MSAyNzQuNCwyODIuNTE4IDI3Mi41LDI3OS41QyAyNzIuNzY4LDI3Ny45MDEgMjcyLjQzNCwyNzYuNTY4IDI3MS41LDI3NS41QyAyNzAuNjU3LDI2Ny42ODMgMjcxLjk5LDI2MC4zNSAyNzUuNSwyNTMuNUMgMjc3LjI2MywyNDkuOTAxIDI3OS45MywyNDcuMDY4IDI4My41LDI0NUMgMjg4LjIyLDI0My4zMDIgMjkyLjg4NywyNDEuODAyIDI5Ny41LDI0MC41IFoiIGZpbGw9IiNmZWZlZmUiIHN0eWxlPSJvcGFjaXR5OjEiLz48L2c+JiN4YTs8Zz48cGF0aCBkPSJNIDY3Ni41LDI0My41IEMgNjc0LjgxOSwyNDUuMDA4IDY3Mi44MTksMjQ2LjAwOCA2NzAuNSwyNDYuNUMgNjcxLjkxMSwyNDQuNDYxIDY3My45MTEsMjQzLjQ2MSA2NzYuNSwyNDMuNSBaIiBmaWxsPSIjYzFlMWM3IiBzdHlsZT0ib3BhY2l0eToxIi8+PC9nPiYjeGE7PGc+PHBhdGggZD0iTSA3NDQuNSwyNTEuNSBDIDc0NS45MDYsMjUxLjk3MyA3NDYuNTczLDI1Mi45NzMgNzQ2LjUsMjU0LjVDIDc0NS4wOTQsMjU0LjAyNyA3NDQuNDI3LDI1My4wMjcgNzQ0LjUsMjUxLjUgWiIgZmlsbD0iI2RiZWRkZSIgc3R5bGU9Im9wYWNpdHk6MSIvPjwvZz4mI3hhOzxnPjxwYXRoIGQ9Ik0gNzQ3LjUsMjU2LjUgQyA3NDguOTY2LDI1Ny4zNDcgNzQ5LjgsMjU4LjY4IDc1MCwyNjAuNUMgNzUwLjY2NywyNjUuODMzIDc1MC42NjcsMjcxLjE2NyA3NTAsMjc2LjVDIDc0OS40MzQsMjc4LjcyMyA3NDguNiwyODAuNzIzIDc0Ny41LDI4Mi41QyA3NTAuMDc0LDI3My44MTIgNzUwLjA3NCwyNjUuMTQ2IDc0Ny41LDI1Ni41IFoiIGZpbGw9IiNjYmU2ZDAiIHN0eWxlPSJvcGFjaXR5OjEiLz48L2c+JiN4YTs8Zz48cGF0aCBkPSJNIDM3MS41LDI2NC41IEMgMzcyLjkwNiwyNjQuOTczIDM3My41NzMsMjY1Ljk3MyAzNzMuNSwyNjcuNUMgMzcyLjA5NCwyNjcuMDI3IDM3MS40MjcsMjY2LjAyNyAzNzEuNSwyNjQuNSBaIiBmaWxsPSIjZDllY2RjIiBzdHlsZT0ib3BhY2l0eToxIi8+PC9nPiYjeGE7PGc+PHBhdGggZD0iTSAyNzUuNSwyNTMuNSBDIDI3MS45OSwyNjAuMzUgMjcwLjY1NywyNjcuNjgzIDI3MS41LDI3NS41QyAyNjkuODkyLDI2OC43OTUgMjcwLjM5MiwyNjIuMTI4IDI3MywyNTUuNUMgMjczLjcwOCwyNTQuNjE5IDI3NC41NDIsMjUzLjk1MyAyNzUuNSwyNTMuNSBaIiBmaWxsPSIjZDBlOGQ0IiBzdHlsZT0ib3BhY2l0eToxIi8+PC9nPiYjeGE7PGc+PHBhdGggZD0iTSA2NDguNSwyNjYuNSBDIDY0OC41NzMsMjY4LjAyNyA2NDcuOTA2LDI2OS4wMjcgNjQ2LjUsMjY5LjVDIDY0Ni40MjcsMjY3Ljk3MyA2NDcuMDk0LDI2Ni45NzMgNjQ4LjUsMjY2LjUgWiIgZmlsbD0iI2Q3ZWJkYSIgc3R5bGU9Im9wYWNpdHk6MSIvPjwvZz4mI3hhOzxnPjxwYXRoIGQ9Ik0gNjQ0LjUsMjczLjUgQyA2NDQuODM0LDI3Ni40OTEgNjQzLjgzNCwyNzguODI0IDY0MS41LDI4MC41QyA2NDEuOTM1LDI3Ny44NDMgNjQyLjkzNSwyNzUuNTA5IDY0NC41LDI3My41IFoiIGZpbGw9IiNkZmVmZTEiIHN0eWxlPSJvcGFjaXR5OjEiLz48L2c+JiN4YTs8Zz48cGF0aCBkPSJNIDM3Ny41LDI3NS41IEMgMzc5LjA2NSwyNzcuNTA5IDM4MC4wNjUsMjc5Ljg0MyAzODAuNSwyODIuNUMgMzc4LjE2NiwyODAuODI0IDM3Ny4xNjYsMjc4LjQ5MSAzNzcuNSwyNzUuNSBaIiBmaWxsPSIjZTBlZmUyIiBzdHlsZT0ib3BhY2l0eToxIi8+PC9nPiYjeGE7PGc+PHBhdGggZD0iTSAyNzIuNSwyNzkuNSBDIDI3NC40LDI4Mi41MTggMjc1LjczMywyODUuODUxIDI3Ni41LDI4OS41QyAyNzQuMTAzLDI4Ni42OTEgMjcyLjc3LDI4My4zNTggMjcyLjUsMjc5LjUgWiIgZmlsbD0iI2M0ZTJjOSIgc3R5bGU9Im9wYWNpdHk6MSIvPjwvZz4mI3hhOzxnPjxwYXRoIGQ9Ik0gMzgwLjUsMjgyLjUgQyAzODIuMjA0LDI4NS45MzkgMzgzLjUzOCwyODkuNjA1IDM4NC41LDI5My41QyAzODIuMDEsMjkwLjM3NCAzODAuNjc3LDI4Ni43MDggMzgwLjUsMjgyLjUgWiIgZmlsbD0iI2RjZWVkZiIgc3R5bGU9Im9wYWNpdHk6MSIvPjwvZz4mI3hhOzxnPjxwYXRoIGQ9Ik0gNjM5LjUsMjg1LjUgQyA1OTkuMjc1LDQwOS4xNzMgNTU4LjI3NSw1MzIuNTA3IDUxNi41LDY1NS41QyA1NTYuNzI1LDUzMS44MjcgNTk3LjcyNSw0MDguNDkzIDYzOS41LDI4NS41IFoiIGZpbGw9IiNkNmViZGEiIHN0eWxlPSJvcGFjaXR5OjEiLz48L2c+JiN4YTs8Zz48cGF0aCBkPSJNIDI3Ni41LDI5MC41IEMgMjc4LjQsMjkzLjUxOCAyNzkuNzMzLDI5Ni44NTEgMjgwLjUsMzAwLjVDIDI3OC4xMDMsMjk3LjY5MSAyNzYuNzcsMjk0LjM1OCAyNzYuNSwyOTAuNSBaIiBmaWxsPSIjYzJlMWM3IiBzdHlsZT0ib3BhY2l0eToxIi8+PC9nPiYjeGE7PGc+PHBhdGggZD0iTSA3NDQuNSwyOTAuNSBDIDc0NC44OCwyOTIuNjk4IDc0NC4yMTMsMjk0LjM2NSA3NDIuNSwyOTUuNUMgNzQyLjc5NiwyOTMuNTk3IDc0My40NjMsMjkxLjkzIDc0NC41LDI5MC41IFoiIGZpbGw9IiNjN2U0Y2MiIHN0eWxlPSJvcGFjaXR5OjEiLz48L2c+JiN4YTs8Zz48cGF0aCBkPSJNIDM4NC41LDI5NC41IEMgMzg2LjI3NywyOTcuNTA1IDM4Ny4yNzcsMzAwLjgzOCAzODcuNSwzMDQuNUMgMzg1LjcyMywzMDEuNDk1IDM4NC43MjMsMjk4LjE2MiAzODQuNSwyOTQuNSBaIiBmaWxsPSIjZTFmMGUzIiBzdHlsZT0ib3BhY2l0eToxIi8+PC9nPiYjeGE7PGc+PHBhdGggZD0iTSA3NDIuNSwyOTYuNSBDIDc0Mi44MzQsMjk5LjQ5MSA3NDEuODM0LDMwMS44MjQgNzM5LjUsMzAzLjVDIDczOS45MzUsMzAwLjg0MyA3NDAuOTM1LDI5OC41MDkgNzQyLjUsMjk2LjUgWiIgZmlsbD0iI2MzZTJjOCIgc3R5bGU9Im9wYWNpdHk6MSIvPjwvZz4mI3hhOzxnPjxwYXRoIGQ9Ik0gMjgwLjUsMzAwLjUgQyAyODEuNTM3LDMwMS45MyAyODIuMjA0LDMwMy41OTcgMjgyLjUsMzA1LjVDIDI4MC43ODcsMzA0LjM2NSAyODAuMTIsMzAyLjY5OCAyODAuNSwzMDAuNSBaIiBmaWxsPSIjYzdlNGNjIiBzdHlsZT0ib3BhY2l0eToxIi8+PC9nPiYjeGE7PGc+PHBhdGggZD0iTSA3MzkuNSwzMDQuNSBDIDczOS44MzQsMzA3LjQ5MSA3MzguODM0LDMwOS44MjQgNzM2LjUsMzExLjVDIDczNi45MzUsMzA4Ljg0MyA3MzcuOTM1LDMwNi41MDkgNzM5LjUsMzA0LjUgWiIgZmlsbD0iI2MzZTJjOCIgc3R5bGU9Im9wYWNpdHk6MSIvPjwvZz4mI3hhOzxnPjxwYXRoIGQ9Ik0gMjgyLjUsMzA2LjUgQyAyODQuNCwzMDkuNTE4IDI4NS43MzMsMzEyLjg1MSAyODYuNSwzMTYuNUMgMjg0LjEwMywzMTMuNjkxIDI4Mi43NywzMTAuMzU4IDI4Mi41LDMwNi41IFoiIGZpbGw9IiNjM2UxYzgiIHN0eWxlPSJvcGFjaXR5OjEiLz48L2c+JiN4YTs8Zz48cGF0aCBkPSJNIDM4OC41LDMwNi41IEMgNDA5LjI3NiwzNjYuNDk0IDQyOS4yNzYsNDI2LjgyNyA0NDguNSw0ODcuNUMgNDI3LjcyNCw0MjcuNTA2IDQwNy43MjQsMzY3LjE3MyAzODguNSwzMDYuNSBaIiBmaWxsPSIjZDhlY2RiIiBzdHlsZT0ib3BhY2l0eToxIi8+PC9nPiYjeGE7PGc+PHBhdGggZD0iTSA3MzYuNSwzMTIuNSBDIDczNi44MzQsMzE1LjQ5MSA3MzUuODM0LDMxNy44MjQgNzMzLjUsMzE5LjVDIDczMy45MzUsMzE2Ljg0MyA3MzQuOTM1LDMxNC41MDkgNzM2LjUsMzEyLjUgWiIgZmlsbD0iI2MyZTFjNyIgc3R5bGU9Im9wYWNpdHk6MSIvPjwvZz4mI3hhOzxnPjxwYXRoIGQ9Ik0gMjg2LjUsMzE2LjUgQyAyODcuNTM3LDMxNy45MyAyODguMjA0LDMxOS41OTcgMjg4LjUsMzIxLjVDIDI4Ni43ODcsMzIwLjM2NSAyODYuMTIsMzE4LjY5OCAyODYuNSwzMTYuNSBaIiBmaWxsPSIjYzhlNGNjIiBzdHlsZT0ib3BhY2l0eToxIi8+PC9nPiYjeGE7PGc+PHBhdGggZD0iTSA3MzMuNSwzMjAuNSBDIDczMy44MzQsMzIzLjQ5MSA3MzIuODM0LDMyNS44MjQgNzMwLjUsMzI3LjVDIDczMC45MzUsMzI0Ljg0MyA3MzEuOTM1LDMyMi41MDkgNzMzLjUsMzIwLjUgWiIgZmlsbD0iI2MyZTFjNyIgc3R5bGU9Im9wYWNpdHk6MSIvPjwvZz4mI3hhOzxnPjxwYXRoIGQ9Ik0gMjg4LjUsMzIyLjUgQyAyOTAuNCwzMjUuNTE4IDI5MS43MzMsMzI4Ljg1MSAyOTIuNSwzMzIuNUMgMjkwLjEwMywzMjkuNjkxIDI4OC43NywzMjYuMzU4IDI4OC41LDMyMi41IFoiIGZpbGw9IiNjM2UyYzgiIHN0eWxlPSJvcGFjaXR5OjEiLz48L2c+JiN4YTs8Zz48cGF0aCBkPSJNIDczMC41LDMyOC41IEMgNzMwLjgzNCwzMzEuNDkxIDcyOS44MzQsMzMzLjgyNCA3MjcuNSwzMzUuNUMgNzI3LjkzNSwzMzIuODQzIDcyOC45MzUsMzMwLjUwOSA3MzAuNSwzMjguNSBaIiBmaWxsPSIjYzFlMWM3IiBzdHlsZT0ib3BhY2l0eToxIi8+PC9nPiYjeGE7PGc+PHBhdGggZD0iTSAyOTIuNSwzMzIuNSBDIDI5My41MzcsMzMzLjkzIDI5NC4yMDQsMzM1LjU5NyAyOTQuNSwzMzcuNUMgMjkyLjc4NywzMzYuMzY1IDI5Mi4xMiwzMzQuNjk4IDI5Mi41LDMzMi41IFoiIGZpbGw9IiNjOGU0Y2QiIHN0eWxlPSJvcGFjaXR5OjEiLz48L2c+JiN4YTs8Zz48cGF0aCBkPSJNIDI5NC41LDMzOC41IEMgMjk2LjQsMzQxLjUxOCAyOTcuNzMzLDM0NC44NTEgMjk4LjUsMzQ4LjVDIDI5Ni4xMDMsMzQ1LjY5MSAyOTQuNzcsMzQyLjM1OCAyOTQuNSwzMzguNSBaIiBmaWxsPSIjYzNlMmM4IiBzdHlsZT0ib3BhY2l0eToxIi8+PC9nPiYjeGE7PGc+PHBhdGggZD0iTSAyOTguNSwzNDguNSBDIDI5OS41MzcsMzQ5LjkzIDMwMC4yMDQsMzUxLjU5NyAzMDAuNSwzNTMuNUMgMjk4Ljc4NywzNTIuMzY1IDI5OC4xMiwzNTAuNjk4IDI5OC41LDM0OC41IFoiIGZpbGw9IiNjN2U0Y2MiIHN0eWxlPSJvcGFjaXR5OjEiLz48L2c+JiN4YTs8Zz48cGF0aCBkPSJNIDcyMS41LDM1MS41IEMgNzIxLjg4LDM1My42OTggNzIxLjIxMywzNTUuMzY1IDcxOS41LDM1Ni41QyA3MTkuNzk2LDM1NC41OTcgNzIwLjQ2MywzNTIuOTMgNzIxLjUsMzUxLjUgWiIgZmlsbD0iI2M5ZTRjZSIgc3R5bGU9Im9wYWNpdHk6MSIvPjwvZz4mI3hhOzxnPjxwYXRoIGQ9Ik0gMzAwLjUsMzU0LjUgQyAzMDIuNCwzNTcuNTE4IDMwMy43MzMsMzYwLjg1MSAzMDQuNSwzNjQuNUMgMzAyLjEwMywzNjEuNjkxIDMwMC43NywzNTguMzU4IDMwMC41LDM1NC41IFoiIGZpbGw9IiNjM2UxYzgiIHN0eWxlPSJvcGFjaXR5OjEiLz48L2c+JiN4YTs8Zz48cGF0aCBkPSJNIDcxOS41LDM1Ny41IEMgNzE5LjIzLDM2MS4zNTggNzE3Ljg5NywzNjQuNjkxIDcxNS41LDM2Ny41QyA3MTYuMjY3LDM2My44NTEgNzE3LjYsMzYwLjUxOCA3MTkuNSwzNTcuNSBaIiBmaWxsPSIjYzNlMmM4IiBzdHlsZT0ib3BhY2l0eToxIi8+PC9nPiYjeGE7PGc+PHBhdGggZD0iTSAzMDQuNSwzNjQuNSBDIDMwNS41MzcsMzY1LjkzIDMwNi4yMDQsMzY3LjU5NyAzMDYuNSwzNjkuNUMgMzA0Ljc4NywzNjguMzY1IDMwNC4xMiwzNjYuNjk4IDMwNC41LDM2NC41IFoiIGZpbGw9IiNjOGU0Y2MiIHN0eWxlPSJvcGFjaXR5OjEiLz48L2c+JiN4YTs8Zz48cGF0aCBkPSJNIDcxNS41LDM2Ny41IEMgNzE1Ljg4LDM2OS42OTggNzE1LjIxMywzNzEuMzY1IDcxMy41LDM3Mi41QyA3MTMuNzk2LDM3MC41OTcgNzE0LjQ2MywzNjguOTMgNzE1LjUsMzY3LjUgWiIgZmlsbD0iI2M3ZTRjYyIgc3R5bGU9Im9wYWNpdHk6MSIvPjwvZz4mI3hhOzxnPjxwYXRoIGQ9Ik0gMzA2LjUsMzcwLjUgQyAzMDguNCwzNzMuNTE4IDMwOS43MzMsMzc2Ljg1MSAzMTAuNSwzODAuNUMgMzA4LjEwMywzNzcuNjkxIDMwNi43NywzNzQuMzU4IDMwNi41LDM3MC41IFoiIGZpbGw9IiNjM2UyYzgiIHN0eWxlPSJvcGFjaXR5OjEiLz48L2c+JiN4YTs8Zz48cGF0aCBkPSJNIDcxMy41LDM3My41IEMgNzEzLjIzLDM3Ny4zNTggNzExLjg5NywzODAuNjkxIDcwOS41LDM4My41QyA3MTAuMjY3LDM3OS44NTEgNzExLjYsMzc2LjUxOCA3MTMuNSwzNzMuNSBaIiBmaWxsPSIjYzJlMWM3IiBzdHlsZT0ib3BhY2l0eToxIi8+PC9nPiYjeGE7PGc+PHBhdGggZD0iTSAzMTAuNSwzODAuNSBDIDMxMS41MzcsMzgxLjkzIDMxMi4yMDQsMzgzLjU5NyAzMTIuNSwzODUuNUMgMzEwLjc4NywzODQuMzY1IDMxMC4xMiwzODIuNjk4IDMxMC41LDM4MC41IFoiIGZpbGw9IiNjOGU0Y2QiIHN0eWxlPSJvcGFjaXR5OjEiLz48L2c+JiN4YTs8Zz48cGF0aCBkPSJNIDcwOS41LDM4My41IEMgNzA5Ljg4LDM4NS42OTggNzA5LjIxMywzODcuMzY1IDcwNy41LDM4OC41QyA3MDcuNzk2LDM4Ni41OTcgNzA4LjQ2MywzODQuOTMgNzA5LjUsMzgzLjUgWiIgZmlsbD0iI2M2ZTRjYiIgc3R5bGU9Im9wYWNpdHk6MSIvPjwvZz4mI3hhOzxnPjxwYXRoIGQ9Ik0gMzEyLjUsMzg2LjUgQyAzMTQuNCwzODkuNTE4IDMxNS43MzMsMzkyLjg1MSAzMTYuNSwzOTYuNUMgMzE0LjEwMywzOTMuNjkxIDMxMi43NywzOTAuMzU4IDMxMi41LDM4Ni41IFoiIGZpbGw9IiNjM2UyYzgiIHN0eWxlPSJvcGFjaXR5OjEiLz48L2c+JiN4YTs8Zz48cGF0aCBkPSJNIDMxNi41LDM5Ni41IEMgMzE3LjUzNywzOTcuOTMgMzE4LjIwNCwzOTkuNTk3IDMxOC41LDQwMS41QyAzMTYuNzg3LDQwMC4zNjUgMzE2LjEyLDM5OC42OTggMzE2LjUsMzk2LjUgWiIgZmlsbD0iI2M4ZTVjZCIgc3R5bGU9Im9wYWNpdHk6MSIvPjwvZz4mI3hhOzxnPjxwYXRoIGQ9Ik0gNzA0LjUsMzk3LjUgQyA3MDQuODM0LDQwMC40OTEgNzAzLjgzNCw0MDIuODI0IDcwMS41LDQwNC41QyA3MDEuOTM1LDQwMS44NDMgNzAyLjkzNSwzOTkuNTA5IDcwNC41LDM5Ny41IFoiIGZpbGw9IiNjMmUxYzciIHN0eWxlPSJvcGFjaXR5OjEiLz48L2c+JiN4YTs8Zz48cGF0aCBkPSJNIDMyMi41LDQxMy41IEMgMzI0LjA2NSw0MTUuNTA5IDMyNS4wNjUsNDE3Ljg0MyAzMjUuNSw0MjAuNUMgMzIzLjE2Niw0MTguODI0IDMyMi4xNjYsNDE2LjQ5MSAzMjIuNSw0MTMuNSBaIiBmaWxsPSIjYmZlMGM1IiBzdHlsZT0ib3BhY2l0eToxIi8+PC9nPiYjeGE7PGc+PHBhdGggZD0iTSAzMjUuNSw0MjEuNSBDIDMyNy4wNjUsNDIzLjUwOSAzMjguMDY1LDQyNS44NDMgMzI4LjUsNDI4LjVDIDMyNi4xNjYsNDI2LjgyNCAzMjUuMTY2LDQyNC40OTEgMzI1LjUsNDIxLjUgWiIgZmlsbD0iI2MwZTBjNSIgc3R5bGU9Im9wYWNpdHk6MSIvPjwvZz4mI3hhOzxnPjxwYXRoIGQ9Ik0gNjkyLjUsNDI4LjUgQyA2OTIuODgsNDMwLjY5OCA2OTIuMjEzLDQzMi4zNjUgNjkwLjUsNDMzLjVDIDY5MC43OTYsNDMxLjU5NyA2OTEuNDYzLDQyOS45MyA2OTIuNSw0MjguNSBaIiBmaWxsPSIjYzllNGNkIiBzdHlsZT0ib3BhY2l0eToxIi8+PC9nPiYjeGE7PGc+PHBhdGggZD0iTSAzMjguNSw0MjkuNSBDIDMzMC4wNjUsNDMxLjUwOSAzMzEuMDY1LDQzMy44NDMgMzMxLjUsNDM2LjVDIDMyOS4xNjYsNDM0LjgyNCAzMjguMTY2LDQzMi40OTEgMzI4LjUsNDI5LjUgWiIgZmlsbD0iI2JmZTBjNCIgc3R5bGU9Im9wYWNpdHk6MSIvPjwvZz4mI3hhOzxnPjxwYXRoIGQ9Ik0gNjkwLjUsNDM0LjUgQyA2OTAuMjMsNDM4LjM1OCA2ODguODk3LDQ0MS42OTEgNjg2LjUsNDQ0LjVDIDY4Ny4yNjcsNDQwLjg1MSA2ODguNiw0MzcuNTE4IDY5MC41LDQzNC41IFoiIGZpbGw9IiNjM2UyYzgiIHN0eWxlPSJvcGFjaXR5OjEiLz48L2c+JiN4YTs8Zz48cGF0aCBkPSJNIDMzMS41LDQzNi41IEMgMzMyLjUzNyw0MzcuOTMgMzMzLjIwNCw0MzkuNTk3IDMzMy41LDQ0MS41QyAzMzEuNzg3LDQ0MC4zNjUgMzMxLjEyLDQzOC42OTggMzMxLjUsNDM2LjUgWiIgZmlsbD0iI2M4ZTVjZCIgc3R5bGU9Im9wYWNpdHk6MSIvPjwvZz4mI3hhOzxnPjxwYXRoIGQ9Ik0gMzMzLjUsNDQyLjUgQyAzMzUuNCw0NDUuNTE4IDMzNi43MzMsNDQ4Ljg1MSAzMzcuNSw0NTIuNUMgMzM1LjEwMyw0NDkuNjkxIDMzMy43Nyw0NDYuMzU4IDMzMy41LDQ0Mi41IFoiIGZpbGw9IiNjM2UyYzgiIHN0eWxlPSJvcGFjaXR5OjEiLz48L2c+JiN4YTs8Zz48cGF0aCBkPSJNIDY4Ni41LDQ0NC41IEMgNjg2Ljg4LDQ0Ni42OTggNjg2LjIxMyw0NDguMzY1IDY4NC41LDQ0OS41QyA2ODQuNzk2LDQ0Ny41OTcgNjg1LjQ2Myw0NDUuOTMgNjg2LjUsNDQ0LjUgWiIgZmlsbD0iI2M4ZTRjZCIgc3R5bGU9Im9wYWNpdHk6MSIvPjwvZz4mI3hhOzxnPjxwYXRoIGQ9Ik0gNjg0LjUsNDUwLjUgQyA2ODQuMjMsNDU0LjM1OCA2ODIuODk3LDQ1Ny42OTEgNjgwLjUsNDYwLjVDIDY4MS4yNjcsNDU2Ljg1MSA2ODIuNiw0NTMuNTE4IDY4NC41LDQ1MC41IFoiIGZpbGw9IiNjMmUxYzciIHN0eWxlPSJvcGFjaXR5OjEiLz48L2c+JiN4YTs8Zz48cGF0aCBkPSJNIDY4MC41LDQ2MC41IEMgNjgwLjg4LDQ2Mi42OTggNjgwLjIxMyw0NjQuMzY1IDY3OC41LDQ2NS41QyA2NzguNzk2LDQ2My41OTcgNjc5LjQ2Myw0NjEuOTMgNjgwLjUsNDYwLjUgWiIgZmlsbD0iI2M2ZTNjYyIgc3R5bGU9Im9wYWNpdHk6MSIvPjwvZz4mI3hhOzxnPjxwYXRoIGQ9Ik0gNjc3LjUsNDY4LjUgQyA2NzcuODgsNDcwLjY5OCA2NzcuMjEzLDQ3Mi4zNjUgNjc1LjUsNDczLjVDIDY3NS43OTYsNDcxLjU5NyA2NzYuNDYzLDQ2OS45MyA2NzcuNSw0NjguNSBaIiBmaWxsPSIjYzZlM2NiIiBzdHlsZT0ib3BhY2l0eToxIi8+PC9nPiYjeGE7PGc+PHBhdGggZD0iTSAzNDMuNSw0NjkuNSBDIDM0NS4wNjUsNDcxLjUwOSAzNDYuMDY1LDQ3My44NDMgMzQ2LjUsNDc2LjVDIDM0NC4xNjYsNDc0LjgyNCAzNDMuMTY2LDQ3Mi40OTEgMzQzLjUsNDY5LjUgWiIgZmlsbD0iI2MwZTBjNSIgc3R5bGU9Im9wYWNpdHk6MSIvPjwvZz4mI3hhOzxnPjxwYXRoIGQ9Ik0gNjc1LjUsNDc0LjUgQyA2NzUuODM0LDQ3Ny40OTEgNjc0LjgzNCw0NzkuODI0IDY3Mi41LDQ4MS41QyA2NzIuOTM1LDQ3OC44NDMgNjczLjkzNSw0NzYuNTA5IDY3NS41LDQ3NC41IFoiIGZpbGw9IiNjMWUxYzciIHN0eWxlPSJvcGFjaXR5OjEiLz48L2c+JiN4YTs8Zz48cGF0aCBkPSJNIDM0Ni41LDQ3Ny41IEMgMzQ4LjA2NSw0NzkuNTA5IDM0OS4wNjUsNDgxLjg0MyAzNDkuNSw0ODQuNUMgMzQ3LjE2Niw0ODIuODI0IDM0Ni4xNjYsNDgwLjQ5MSAzNDYuNSw0NzcuNSBaIiBmaWxsPSIjYzBlMGM1IiBzdHlsZT0ib3BhY2l0eToxIi8+PC9nPiYjeGE7PGc+PHBhdGggZD0iTSA2NzEuNSw0ODQuNSBDIDY3MS44OCw0ODYuNjk4IDY3MS4yMTMsNDg4LjM2NSA2NjkuNSw0ODkuNUMgNjY5Ljc5Niw0ODcuNTk3IDY3MC40NjMsNDg1LjkzIDY3MS41LDQ4NC41IFoiIGZpbGw9IiNjOWU0Y2QiIHN0eWxlPSJvcGFjaXR5OjEiLz48L2c+JiN4YTs8Zz48cGF0aCBkPSJNIDM0OS41LDQ4NS41IEMgMzUxLjQsNDg4LjUxOCAzNTIuNzMzLDQ5MS44NTEgMzUzLjUsNDk1LjVDIDM1MS4xMDMsNDkyLjY5MSAzNDkuNzcsNDg5LjM1OCAzNDkuNSw0ODUuNSBaIiBmaWxsPSIjYzFlMWM2IiBzdHlsZT0ib3BhY2l0eToxIi8+PC9nPiYjeGE7PGc+PHBhdGggZD0iTSA2NjguNSw0OTIuNSBDIDY2OC44OCw0OTQuNjk4IDY2OC4yMTMsNDk2LjM2NSA2NjYuNSw0OTcuNUMgNjY2Ljc5Niw0OTUuNTk3IDY2Ny40NjMsNDkzLjkzIDY2OC41LDQ5Mi41IFoiIGZpbGw9IiNjOGU0Y2QiIHN0eWxlPSJvcGFjaXR5OjEiLz48L2c+JiN4YTs8Zz48cGF0aCBkPSJNIDQ1MC41LDQ5My41IEMgNDYxLjI3Niw1MjMuNDk0IDQ3MS4yNzYsNTUzLjgyOCA0ODAuNSw1ODQuNUMgNDY5LjcyNCw1NTQuNTA2IDQ1OS43MjQsNTI0LjE3MiA0NTAuNSw0OTMuNSBaIiBmaWxsPSIjZDdlY2RiIiBzdHlsZT0ib3BhY2l0eToxIi8+PC9nPiYjeGE7PGc+PHBhdGggZD0iTSAzNTMuNSw0OTUuNSBDIDM1NC41MzcsNDk2LjkzIDM1NS4yMDQsNDk4LjU5NyAzNTUuNSw1MDAuNUMgMzUzLjc4Nyw0OTkuMzY1IDM1My4xMiw0OTcuNjk4IDM1My41LDQ5NS41IFoiIGZpbGw9IiNjOGU0Y2QiIHN0eWxlPSJvcGFjaXR5OjEiLz48L2c+JiN4YTs8Zz48cGF0aCBkPSJNIDY2NS41LDUwMC41IEMgNjY1Ljg4LDUwMi42OTggNjY1LjIxMyw1MDQuMzY1IDY2My41LDUwNS41QyA2NjMuNzk2LDUwMy41OTcgNjY0LjQ2Myw1MDEuOTMgNjY1LjUsNTAwLjUgWiIgZmlsbD0iI2M3ZTRjZCIgc3R5bGU9Im9wYWNpdHk6MSIvPjwvZz4mI3hhOzxnPjxwYXRoIGQ9Ik0gMzU1LjUsNTAxLjUgQyAzNTcuNCw1MDQuNTE4IDM1OC43MzMsNTA3Ljg1MSAzNTkuNSw1MTEuNUMgMzU3LjEwMyw1MDguNjkxIDM1NS43Nyw1MDUuMzU4IDM1NS41LDUwMS41IFoiIGZpbGw9IiNjM2UyYzgiIHN0eWxlPSJvcGFjaXR5OjEiLz48L2c+JiN4YTs8Zz48cGF0aCBkPSJNIDY2Mi41LDUwOC41IEMgNjYyLjg4LDUxMC42OTggNjYyLjIxMyw1MTIuMzY1IDY2MC41LDUxMy41QyA2NjAuNzk2LDUxMS41OTcgNjYxLjQ2Myw1MDkuOTMgNjYyLjUsNTA4LjUgWiIgZmlsbD0iI2M2ZTRjYiIgc3R5bGU9Im9wYWNpdHk6MSIvPjwvZz4mI3hhOzxnPjxwYXRoIGQ9Ik0gMzU5LjUsNTExLjUgQyAzNjAuNTM3LDUxMi45MyAzNjEuMjA0LDUxNC41OTcgMzYxLjUsNTE2LjVDIDM1OS43ODcsNTE1LjM2NSAzNTkuMTIsNTEzLjY5OCAzNTkuNSw1MTEuNSBaIiBmaWxsPSIjYzdlNGNjIiBzdHlsZT0ib3BhY2l0eToxIi8+PC9nPiYjeGE7PGc+PHBhdGggZD0iTSAzNjEuNSw1MTcuNSBDIDM2My4wNjUsNTE5LjUwOSAzNjQuMDY1LDUyMS44NDMgMzY0LjUsNTI0LjVDIDM2Mi4xNjYsNTIyLjgyNCAzNjEuMTY2LDUyMC40OTEgMzYxLjUsNTE3LjUgWiIgZmlsbD0iI2MzZTJjOCIgc3R5bGU9Im9wYWNpdHk6MSIvPjwvZz4mI3hhOzxnPjxwYXRoIGQ9Ik0gMzY0LjUsNTI1LjUgQyAzNjYuNCw1MjguNTE4IDM2Ny43MzMsNTMxLjg1MSAzNjguNSw1MzUuNUMgMzY2LjEwMyw1MzIuNjkxIDM2NC43Nyw1MjkuMzU4IDM2NC41LDUyNS41IFoiIGZpbGw9IiNjM2UyYzgiIHN0eWxlPSJvcGFjaXR5OjEiLz48L2c+JiN4YTs8Zz48cGF0aCBkPSJNIDM2OC41LDUzNS41IEMgMzY5LjUzNyw1MzYuOTMgMzcwLjIwNCw1MzguNTk3IDM3MC41LDU0MC41QyAzNjguNzg3LDUzOS4zNjUgMzY4LjEyLDUzNy42OTggMzY4LjUsNTM1LjUgWiIgZmlsbD0iI2M4ZTRjZCIgc3R5bGU9Im9wYWNpdHk6MSIvPjwvZz4mI3hhOzxnPjxwYXRoIGQ9Ik0gNjUxLjUsNTM3LjUgQyA2NTEuODgsNTM5LjY5OCA2NTEuMjEzLDU0MS4zNjUgNjQ5LjUsNTQyLjVDIDY0OS43OTYsNTQwLjU5NyA2NTAuNDYzLDUzOC45MyA2NTEuNSw1MzcuNSBaIiBmaWxsPSIjY2FlNWNmIiBzdHlsZT0ib3BhY2l0eToxIi8+PC9nPiYjeGE7PGc+PHBhdGggZD0iTSAzNzAuNSw1NDEuNSBDIDM3Mi4wNjUsNTQzLjUwOSAzNzMuMDY1LDU0NS44NDMgMzczLjUsNTQ4LjVDIDM3MS4xNjYsNTQ2LjgyNCAzNzAuMTY2LDU0NC40OTEgMzcwLjUsNTQxLjUgWiIgZmlsbD0iI2M0ZTJjOSIgc3R5bGU9Im9wYWNpdHk6MSIvPjwvZz4mI3hhOzxnPjxwYXRoIGQ9Ik0gNjQ5LjUsNTQ0LjUgQyA2NDkuNTczLDU0Ni4wMjcgNjQ4LjkwNiw1NDcuMDI3IDY0Ny41LDU0Ny41QyA2NDcuNDI3LDU0NS45NzMgNjQ4LjA5NCw1NDQuOTczIDY0OS41LDU0NC41IFoiIGZpbGw9IiNkMmU5ZDYiIHN0eWxlPSJvcGFjaXR5OjEiLz48L2c+JiN4YTs8Zz48cGF0aCBkPSJNIDM3My41LDU0OS41IEMgMzc1LjQsNTUyLjUxOCAzNzYuNzMzLDU1NS44NTEgMzc3LjUsNTU5LjVDIDM3NS4xMDMsNTU2LjY5MSAzNzMuNzcsNTUzLjM1OCAzNzMuNSw1NDkuNSBaIiBmaWxsPSIjYzNlMmM5IiBzdHlsZT0ib3BhY2l0eToxIi8+PC9nPiYjeGE7PGc+PHBhdGggZD0iTSAzNzcuNSw1NTkuNSBDIDM3OC41MzcsNTYwLjkzIDM3OS4yMDQsNTYyLjU5NyAzNzkuNSw1NjQuNUMgMzc3Ljc4Nyw1NjMuMzY1IDM3Ny4xMiw1NjEuNjk4IDM3Ny41LDU1OS41IFoiIGZpbGw9IiNjOWU1Y2UiIHN0eWxlPSJvcGFjaXR5OjEiLz48L2c+JiN4YTs8Zz48cGF0aCBkPSJNIDM3OS41LDU2NS41IEMgMzgxLjQsNTY4LjUxOCAzODIuNzMzLDU3MS44NTEgMzgzLjUsNTc1LjVDIDM4MS4xMDMsNTcyLjY5MSAzNzkuNzcsNTY5LjM1OCAzNzkuNSw1NjUuNSBaIiBmaWxsPSIjYzRlMmM5IiBzdHlsZT0ib3BhY2l0eToxIi8+PC9nPiYjeGE7PGc+PHBhdGggZD0iTSA2MzkuNSw1NjkuNSBDIDYzOS44OCw1NzEuNjk4IDYzOS4yMTMsNTczLjM2NSA2MzcuNSw1NzQuNUMgNjM3Ljc5Niw1NzIuNTk3IDYzOC40NjMsNTcwLjkzIDYzOS41LDU2OS41IFoiIGZpbGw9IiNjOGU0Y2MiIHN0eWxlPSJvcGFjaXR5OjEiLz48L2c+JiN4YTs8Zz48cGF0aCBkPSJNIDM4My41LDU3NS41IEMgMzg0LjUzNyw1NzYuOTMgMzg1LjIwNCw1NzguNTk3IDM4NS41LDU4MC41QyAzODMuNzg3LDU3OS4zNjUgMzgzLjEyLDU3Ny42OTggMzgzLjUsNTc1LjUgWiIgZmlsbD0iI2NhZTVjZSIgc3R5bGU9Im9wYWNpdHk6MSIvPjwvZz4mI3hhOzxnPjxwYXRoIGQ9Ik0gNjM2LjUsNTc3LjUgQyA2MzYuODgsNTc5LjY5OCA2MzYuMjEzLDU4MS4zNjUgNjM0LjUsNTgyLjVDIDYzNC43OTYsNTgwLjU5NyA2MzUuNDYzLDU3OC45MyA2MzYuNSw1NzcuNSBaIiBmaWxsPSIjYzhlNGNjIiBzdHlsZT0ib3BhY2l0eToxIi8+PC9nPiYjeGE7PGc+PHBhdGggZD0iTSA0ODAuNSw1ODQuNSBDIDQ5MC41MzcsNjEyLjk0NCA1MDAuMjA0LDY0MS42MTEgNTA5LjUsNjcwLjVDIDUwOC44ODMsNjcwLjM4OSA1MDguMzgzLDY3MC4wNTYgNTA4LDY2OS41QyA0OTguMzIxLDY0MS4yOTcgNDg5LjE1NCw2MTIuOTY0IDQ4MC41LDU4NC41IFoiIGZpbGw9IiNkOGVjZGMiIHN0eWxlPSJvcGFjaXR5OjEiLz48L2c+JiN4YTs8Zz48cGF0aCBkPSJNIDYzMy41LDU4NS41IEMgNjMzLjg4LDU4Ny42OTggNjMzLjIxMyw1ODkuMzY1IDYzMS41LDU5MC41QyA2MzEuNzk2LDU4OC41OTcgNjMyLjQ2Myw1ODYuOTMgNjMzLjUsNTg1LjUgWiIgZmlsbD0iI2M3ZTNjYyIgc3R5bGU9Im9wYWNpdHk6MSIvPjwvZz4mI3hhOzxnPjxwYXRoIGQ9Ik0gMzg5LjUsNTkyLjUgQyAzOTEuMDY1LDU5NC41MDkgMzkyLjA2NSw1OTYuODQzIDM5Mi41LDU5OS41QyAzOTAuMTY2LDU5Ny44MjQgMzg5LjE2Niw1OTUuNDkxIDM4OS41LDU5Mi41IFoiIGZpbGw9IiNiZmUwYzUiIHN0eWxlPSJvcGFjaXR5OjEiLz48L2c+JiN4YTs8Zz48cGF0aCBkPSJNIDYyMy41LDYxMy41IEMgNjIzLjU3Myw2MTUuMDI3IDYyMi45MDYsNjE2LjAyNyA2MjEuNSw2MTYuNUMgNjIxLjQyNyw2MTQuOTczIDYyMi4wOTQsNjEzLjk3MyA2MjMuNSw2MTMuNSBaIiBmaWxsPSIjZDNlOWQ2IiBzdHlsZT0ib3BhY2l0eToxIi8+PC9nPiYjeGE7PGc+PHBhdGggZD0iTSA0MDEuNSw2MjMuNSBDIDQwMi41MzcsNjI0LjkzIDQwMy4yMDQsNjI2LjU5NyA0MDMuNSw2MjguNUMgNDAxLjc4Nyw2MjcuMzY1IDQwMS4xMiw2MjUuNjk4IDQwMS41LDYyMy41IFoiIGZpbGw9IiNjYWU1Y2YiIHN0eWxlPSJvcGFjaXR5OjEiLz48L2c+JiN4YTs8Zz48cGF0aCBkPSJNIDYxNi41LDYzMC41IEMgNjE2Ljg4LDYzMi42OTggNjE2LjIxMyw2MzQuMzY1IDYxNC41LDYzNS41QyA2MTQuNzk2LDYzMy41OTcgNjE1LjQ2Myw2MzEuOTMgNjE2LjUsNjMwLjUgWiIgZmlsbD0iI2M4ZTRjZCIgc3R5bGU9Im9wYWNpdHk6MSIvPjwvZz4mI3hhOzxnPjxwYXRoIGQ9Ik0gNjEzLjUsNjM4LjUgQyA2MTMuODgsNjQwLjY5OCA2MTMuMjEzLDY0Mi4zNjUgNjExLjUsNjQzLjVDIDYxMS43OTYsNjQxLjU5NyA2MTIuNDYzLDYzOS45MyA2MTMuNSw2MzguNSBaIiBmaWxsPSIjYzhlNGNkIiBzdHlsZT0ib3BhY2l0eToxIi8+PC9nPiYjeGE7PGc+PHBhdGggZD0iTSA0MDcuNSw2NDAuNSBDIDQwOS4wNjUsNjQyLjUwOSA0MTAuMDY1LDY0NC44NDMgNDEwLjUsNjQ3LjVDIDQwOC4xNjYsNjQ1LjgyNCA0MDcuMTY2LDY0My40OTEgNDA3LjUsNjQwLjUgWiIgZmlsbD0iI2MxZTFjNyIgc3R5bGU9Im9wYWNpdHk6MSIvPjwvZz4mI3hhOzxnPjxwYXRoIGQ9Ik0gNjEwLjUsNjQ2LjUgQyA2MTAuODgsNjQ4LjY5OCA2MTAuMjEzLDY1MC4zNjUgNjA4LjUsNjUxLjVDIDYwOC43OTYsNjQ5LjU5NyA2MDkuNDYzLDY0Ny45MyA2MTAuNSw2NDYuNSBaIiBmaWxsPSIjYzhlNGNjIiBzdHlsZT0ib3BhY2l0eToxIi8+PC9nPiYjeGE7PGc+PHBhdGggZD0iTSA0MTAuNSw2NDguNSBDIDQxMi4wNjUsNjUwLjUwOSA0MTMuMDY1LDY1Mi44NDMgNDEzLjUsNjU1LjVDIDQxMS4xNjYsNjUzLjgyNCA0MTAuMTY2LDY1MS40OTEgNDEwLjUsNjQ4LjUgWiIgZmlsbD0iI2MyZTFjNyIgc3R5bGU9Im9wYWNpdHk6MSIvPjwvZz4mI3hhOzxnPjxwYXRoIGQ9Ik0gNjA3LjUsNjU0LjUgQyA2MDcuODgsNjU2LjY5OCA2MDcuMjEzLDY1OC4zNjUgNjA1LjUsNjU5LjVDIDYwNS43OTYsNjU3LjU5NyA2MDYuNDYzLDY1NS45MyA2MDcuNSw2NTQuNSBaIiBmaWxsPSIjYzdlNGNiIiBzdHlsZT0ib3BhY2l0eToxIi8+PC9nPiYjeGE7PGc+PHBhdGggZD0iTSA0MTMuNSw2NTYuNSBDIDQxNS4wNjUsNjU4LjUwOSA0MTYuMDY1LDY2MC44NDMgNDE2LjUsNjYzLjVDIDQxNC4xNjYsNjYxLjgyNCA0MTMuMTY2LDY1OS40OTEgNDEzLjUsNjU2LjUgWiIgZmlsbD0iI2MyZTFjNyIgc3R5bGU9Im9wYWNpdHk6MSIvPjwvZz4mI3hhOzxnPjxwYXRoIGQ9Ik0gNTE0LjUsNjYxLjUgQyA1MTQuMDQxLDY2NC44NzcgNTEzLjM3NCw2NjguMjExIDUxMi41LDY3MS41QyA1MTEuMjA5LDY3MS43MzcgNTEwLjIwOSw2NzEuNDA0IDUwOS41LDY3MC41QyA1MTAuNDk3LDY3MC41MyA1MTEuMTY0LDY3MC4wMyA1MTEuNSw2NjlDIDUxMi4yMzMsNjY2LjI4IDUxMy4yMzMsNjYzLjc4IDUxNC41LDY2MS41IFoiIGZpbGw9IiNkZWVmZTEiIHN0eWxlPSJvcGFjaXR5OjEiLz48L2c+JiN4YTs8Zz48cGF0aCBkPSJNIDYwNC41LDY2Mi41IEMgNjA0Ljg4LDY2NC42OTggNjA0LjIxMyw2NjYuMzY1IDYwMi41LDY2Ny41QyA2MDIuNzk2LDY2NS41OTcgNjAzLjQ2Myw2NjMuOTMgNjA0LjUsNjYyLjUgWiIgZmlsbD0iI2M2ZTNjYiIgc3R5bGU9Im9wYWNpdHk6MSIvPjwvZz4mI3hhOzxnPjxwYXRoIGQ9Ik0gNDE3LjUsNjY2LjUgQyA0MTguNTM3LDY2Ny45MyA0MTkuMjA0LDY2OS41OTcgNDE5LjUsNjcxLjVDIDQxNy43ODcsNjcwLjM2NSA0MTcuMTIsNjY4LjY5OCA0MTcuNSw2NjYuNSBaIiBmaWxsPSIjYzZlM2NiIiBzdHlsZT0ib3BhY2l0eToxIi8+PC9nPiYjeGE7PGc+PHBhdGggZD0iTSA0MjIuNSw2ODAuNSBDIDQyNC4wNjUsNjgyLjUwOSA0MjUuMDY1LDY4NC44NDMgNDI1LjUsNjg3LjVDIDQyMy4xNjYsNjg1LjgyNCA0MjIuMTY2LDY4My40OTEgNDIyLjUsNjgwLjUgWiIgZmlsbD0iI2MyZTFjNyIgc3R5bGU9Im9wYWNpdHk6MSIvPjwvZz4mI3hhOzxnPjxwYXRoIGQ9Ik0gNTk0LjUsNjkwLjUgQyA1OTQuNTczLDY5Mi4wMjcgNTkzLjkwNiw2OTMuMDI3IDU5Mi41LDY5My41QyA1OTIuNDI3LDY5MS45NzMgNTkzLjA5NCw2OTAuOTczIDU5NC41LDY5MC41IFoiIGZpbGw9IiNkM2VhZDYiIHN0eWxlPSJvcGFjaXR5OjEiLz48L2c+JiN4YTs8Zz48cGF0aCBkPSJNIDQyNi41LDY5MC41IEMgNDI3LjUzNyw2OTEuOTMgNDI4LjIwNCw2OTMuNTk3IDQyOC41LDY5NS41QyA0MjYuNzg3LDY5NC4zNjUgNDI2LjEyLDY5Mi42OTggNDI2LjUsNjkwLjUgWiIgZmlsbD0iI2M2ZTNjYiIgc3R5bGU9Im9wYWNpdHk6MSIvPjwvZz4mI3hhOzxnPjxwYXRoIGQ9Ik0gNDI5LjUsNjk4LjUgQyA0MzAuNTM3LDY5OS45MyA0MzEuMjA0LDcwMS41OTcgNDMxLjUsNzAzLjVDIDQyOS43ODcsNzAyLjM2NSA0MjkuMTIsNzAwLjY5OCA0MjkuNSw2OTguNSBaIiBmaWxsPSIjYzdlNGNjIiBzdHlsZT0ib3BhY2l0eToxIi8+PC9nPiYjeGE7PGc+PHBhdGggZD0iTSA0MzIuNSw3MDYuNSBDIDQzMy41MzcsNzA3LjkzIDQzNC4yMDQsNzA5LjU5NyA0MzQuNSw3MTEuNUMgNDMyLjc4Nyw3MTAuMzY1IDQzMi4xMiw3MDguNjk4IDQzMi41LDcwNi41IFoiIGZpbGw9IiNjN2U0Y2MiIHN0eWxlPSJvcGFjaXR5OjEiLz48L2c+JiN4YTs8Zz48cGF0aCBkPSJNIDU4Ny41LDcwNy41IEMgNTg3Ljg4LDcwOS42OTggNTg3LjIxMyw3MTEuMzY1IDU4NS41LDcxMi41QyA1ODUuNzk2LDcxMC41OTcgNTg2LjQ2Myw3MDguOTMgNTg3LjUsNzA3LjUgWiIgZmlsbD0iI2M5ZTRjZCIgc3R5bGU9Im9wYWNpdHk6MSIvPjwvZz4mI3hhOzxnPjxwYXRoIGQ9Ik0gNDM0LjUsNzEyLjUgQyA0MzYuNCw3MTUuNTE4IDQzNy43MzMsNzE4Ljg1MSA0MzguNSw3MjIuNUMgNDM2LjEwMyw3MTkuNjkxIDQzNC43Nyw3MTYuMzU4IDQzNC41LDcxMi41IFoiIGZpbGw9IiNjMmUyYzciIHN0eWxlPSJvcGFjaXR5OjEiLz48L2c+JiN4YTs8Zz48cGF0aCBkPSJNIDU4NC41LDcxNS41IEMgNTg0Ljg4LDcxNy42OTggNTg0LjIxMyw3MTkuMzY1IDU4Mi41LDcyMC41QyA1ODIuNzk2LDcxOC41OTcgNTgzLjQ2Myw3MTYuOTMgNTg0LjUsNzE1LjUgWiIgZmlsbD0iI2M4ZTRjZCIgc3R5bGU9Im9wYWNpdHk6MSIvPjwvZz4mI3hhOzxnPjxwYXRoIGQ9Ik0gNDM4LjUsNzIyLjUgQyA0MzkuNTM3LDcyMy45MyA0NDAuMjA0LDcyNS41OTcgNDQwLjUsNzI3LjVDIDQzOC43ODcsNzI2LjM2NSA0MzguMTIsNzI0LjY5OCA0MzguNSw3MjIuNSBaIiBmaWxsPSIjYzhlNGNjIiBzdHlsZT0ib3BhY2l0eToxIi8+PC9nPiYjeGE7PGc+PHBhdGggZD0iTSA1ODEuNSw3MjMuNSBDIDU4MS44OCw3MjUuNjk4IDU4MS4yMTMsNzI3LjM2NSA1NzkuNSw3MjguNUMgNTc5Ljc5Niw3MjYuNTk3IDU4MC40NjMsNzI0LjkzIDU4MS41LDcyMy41IFoiIGZpbGw9IiNjN2U0Y2MiIHN0eWxlPSJvcGFjaXR5OjEiLz48L2c+JiN4YTs8Zz48cGF0aCBkPSJNIDQ0MC41LDcyOC41IEMgNDQyLjA2NSw3MzAuNTA5IDQ0My4wNjUsNzMyLjg0MyA0NDMuNSw3MzUuNUMgNDQxLjE2Niw3MzMuODI0IDQ0MC4xNjYsNzMxLjQ5MSA0NDAuNSw3MjguNSBaIiBmaWxsPSIjYzJlMmM3IiBzdHlsZT0ib3BhY2l0eToxIi8+PC9nPiYjeGE7PGc+PHBhdGggZD0iTSA0NzYuNSw3NjQuNSBDIDQ3OC42OTgsNzY0Ljg3NSA0ODAuNjk4LDc2NS41NDIgNDgyLjUsNzY2LjVDIDQ3OS45OSw3NjYuOTQ2IDQ3Ny45OSw3NjYuMjggNDc2LjUsNzY0LjUgWiIgZmlsbD0iI2NiZTVjZiIgc3R5bGU9Im9wYWNpdHk6MSIvPjwvZz4mI3hhOzxnPjxwYXRoIGQ9Ik0gNTQxLjUsNzY1LjUgQyA1MzcuMzA3LDc2OC4wOSA1MzIuNjQsNzY5LjA5IDUyNy41LDc2OC41QyA1MzIuMDUsNzY3LjUwOSA1MzYuNzE3LDc2Ni41MDkgNTQxLjUsNzY1LjUgWiIgZmlsbD0iI2JjZGVjMiIgc3R5bGU9Im9wYWNpdHk6MSIvPjwvZz4mI3hhOzwvc3ZnPg==;" vertex="1" parent="FllBn6mnmVsICHXjcec_-22">
          <mxGeometry x="5" width="70" height="70" as="geometry" />
        </mxCell>
        <mxCell id="FllBn6mnmVsICHXjcec_-11" value="&lt;b&gt;VOICEVOX&lt;/b&gt;" style="text;html=1;align=center;verticalAlign=middle;resizable=0;points=[];autosize=1;strokeColor=none;fillColor=none;spacing=0;fontFamily=Noto Sans Japanese;fontSource=https%3A%2F%2Ffonts.googleapis.com%2Fcss%3Ffamily%3DNoto%2BSans%2BJapanese;" vertex="1" parent="FllBn6mnmVsICHXjcec_-22">
          <mxGeometry y="75.46000000000001" width="80" height="20" as="geometry" />
        </mxCell>
      </root>
    </mxGraphModel>
  </diagram>
</mxfile>
